<?xml version="1.0" encoding="UTF-8"?><svg id="_レイヤー_2" xmlns="http://www.w3.org/2000/svg" viewBox="0 0 151.95 151.95"><defs><style>.cls-1{fill:none;}.cls-2,.cls-3{fill:#fff;}.cls-3{fill-rule:evenodd;}</style></defs><g id="_レイヤー_1-2"><rect class="cls-1" width="151.95" height="151.95"/><path class="cls-2" d="m92.06,131.27c3.08-.51,6.08-1.32,8.99-2.4,5.12-1.92,9.92-4.71,14.16-8.3-2.79-28.97-33.16-43.43-33.25-43.48-.33-.16-.61-.45-.74-.83-.26-.76.14-1.58.89-1.84,16.96-5.95,16.52-14.51,15.69-17.64l-61.06,21.53c.69,2.63,2.71,8.64,6.84,8.55.93-.12,1.85-.22,2.76-.28.99-.07,1.95-.1,2.89-.1,11.84,0,22.55,4.8,30.31,12.55,7.76,7.76,12.55,18.47,12.55,30.31,0,.58-.02,1.22-.05,1.92h0Z"/><path class="cls-2" d="m58.82,124.7c3.36,2.09,6.95,3.74,10.69,4.94,4.7,1.5,9.65,2.28,14.66,2.28,1.67,0,3.33-.09,4.97-.26.01-.17.02-.35.03-.52.02-.54.04-1.14.04-1.8,0-11.03-4.47-21.03-11.7-28.26-3.22-3.22-6.99-5.89-11.15-7.87.33.37.65.76.95,1.15,2.56,3.35,4.04,7.52,4.04,11.96,0,4.67-1.64,9.02-4.42,12.44-2.11,2.6-4.89,4.67-8.1,5.93"/><path class="cls-3" d="m69.82,57.87l5.14-6.14c1.21-1.45,2.25-3.03,3.1-4.72,1.69-3.38,2.56-7.09,2.56-10.87,0-2.76-.46-5.5-1.38-8.11-.77-2.18-1.85-4.24-3.21-6.11l-.35-.48,2.64-1.43h0s1.35-.73,1.35-.73l.27.38c1.58,2.26,2.83,4.74,3.71,7.36.98,2.94,1.48,6.02,1.48,9.12,0,6.23-1.99,12.23-5.72,17.22-3.72,4.98-8.97,8.65-14.93,10.41-1.32.39-2.66.68-4.03.88-1.37.2-2.75.3-4.14.3h-.54c-.18-.01-.37-.02-.55-.02-.23,0-.46-.02-.69-.03-.23-.01-.46-.03-.68-.05-.8-.07-1.6-.17-2.4-.31-.8-.14-1.58-.31-2.36-.51-4.51-1.17-8.67-3.42-12.12-6.55-3.2-2.91-5.72-6.51-7.35-10.51l-.17-.43,4-2.17.21.55c1.4,3.62,3.66,6.86,6.56,9.43,2.9,2.56,6.37,4.41,10.12,5.35l1.88.48.6-1.85c.32-.99.57-1.99.76-3.01.27-1.47.41-2.97.41-4.47,0-2.8-.47-5.58-1.42-8.22-.79-2.21-1.91-4.29-3.3-6.18l-.35-.48,2.63-1.43h0s1.38-.74,1.38-.74l.27.37c1.62,2.28,2.91,4.8,3.8,7.45,1,2.97,1.51,6.09,1.51,9.22,0,1.48-.11,2.97-.34,4.43-.12.79-.28,1.57-.47,2.34l-.73,3.01,3.06-.47c.35-.05.69-.11,1.03-.18l.76-.15.48-.62c1.57-2.04,2.82-4.32,3.68-6.74.92-2.6,1.38-5.35,1.38-8.11,0-2.92-.52-5.81-1.54-8.55-.86-2.3-2.07-4.45-3.58-6.39l-.38-.48,2.6-1.41h0s1.42-.77,1.42-.77l.27.36c1.75,2.34,3.14,4.94,4.11,7.7,1.08,3.07,1.62,6.29,1.62,9.54,0,1.8-.16,3.59-.5,5.36l-1.58,8.16Z"/></g></svg>